<mxfile host="app.diagrams.net" modified="2020-11-26T09:07:31.441Z" agent="5.0 (Macintosh; Intel Mac OS X 10_15_5) AppleWebKit/537.36 (KHTML, like Gecko) Chrome/87.0.4280.67 Safari/537.36" etag="g062BNwwfdQBSr10Jad_" version="13.6.2" type="github">
  <diagram name="Page-1" id="74e2e168-ea6b-b213-b513-2b3c1d86103e">
    <mxGraphModel dx="1395" dy="872" grid="1" gridSize="10" guides="1" tooltips="1" connect="1" arrows="1" fold="1" page="1" pageScale="1" pageWidth="1100" pageHeight="850" background="#ffffff" math="0" shadow="0">
      <root>
        <mxCell id="0" />
        <mxCell id="1" parent="0" />
        <mxCell id="77e6c97f196da883-1" value="Voice OTP" style="swimlane;html=1;childLayout=stackLayout;startSize=20;rounded=0;shadow=0;labelBackgroundColor=none;strokeWidth=1;fontFamily=Verdana;fontSize=8;align=center;" parent="1" vertex="1">
          <mxGeometry x="70" y="40" width="1220" height="630" as="geometry" />
        </mxCell>
        <mxCell id="77e6c97f196da883-2" value="User" style="swimlane;html=1;startSize=20;" parent="77e6c97f196da883-1" vertex="1">
          <mxGeometry y="20" width="290" height="610" as="geometry" />
        </mxCell>
        <mxCell id="7hA2E8RumJZDi3fpIp_V-9" value="VoiceOtp页面" style="whiteSpace=wrap;html=1;rounded=1;shadow=0;fontFamily=Verdana;fontSize=8;strokeWidth=1;" vertex="1" parent="77e6c97f196da883-2">
          <mxGeometry x="70" y="140" width="120" height="60" as="geometry" />
        </mxCell>
        <mxCell id="77e6c97f196da883-8" value="激活landing页：&lt;br&gt;用户点击Active Now" style="rounded=1;whiteSpace=wrap;html=1;shadow=0;labelBackgroundColor=none;strokeWidth=1;fontFamily=Verdana;fontSize=8;align=center;" parent="77e6c97f196da883-2" vertex="1">
          <mxGeometry x="70" y="40" width="140" height="60" as="geometry" />
        </mxCell>
        <mxCell id="77e6c97f196da883-26" style="edgeStyle=orthogonalEdgeStyle;rounded=1;html=1;labelBackgroundColor=none;startArrow=none;startFill=0;startSize=5;endArrow=classicThin;endFill=1;endSize=5;jettySize=auto;orthogonalLoop=1;strokeWidth=1;fontFamily=Verdana;fontSize=8" parent="77e6c97f196da883-1" source="77e6c97f196da883-8" target="77e6c97f196da883-11" edge="1">
          <mxGeometry relative="1" as="geometry" />
        </mxCell>
        <mxCell id="77e6c97f196da883-3" value="FE" style="swimlane;html=1;startSize=20;" parent="77e6c97f196da883-1" vertex="1">
          <mxGeometry x="290" y="20" width="300" height="610" as="geometry" />
        </mxCell>
        <mxCell id="7hA2E8RumJZDi3fpIp_V-7" value="&lt;span&gt;history.push(/otpcheck)&lt;/span&gt;" style="whiteSpace=wrap;html=1;rounded=1;shadow=0;fontFamily=Verdana;fontSize=8;strokeWidth=1;" vertex="1" parent="77e6c97f196da883-3">
          <mxGeometry x="70" y="140" width="160" height="60" as="geometry" />
        </mxCell>
        <mxCell id="77e6c97f196da883-11" value="发请求&lt;br&gt;/get_user_mobile" style="rounded=1;whiteSpace=wrap;html=1;shadow=0;labelBackgroundColor=none;strokeWidth=1;fontFamily=Verdana;fontSize=8;align=center;" parent="77e6c97f196da883-3" vertex="1">
          <mxGeometry x="70" y="40" width="160" height="60" as="geometry" />
        </mxCell>
        <mxCell id="7hA2E8RumJZDi3fpIp_V-11" value="发请求&lt;br&gt;/send_mobile_vcode&lt;br&gt;{force_action_type = false}" style="whiteSpace=wrap;html=1;rounded=1;shadow=0;fontFamily=Verdana;fontSize=8;strokeWidth=1;" vertex="1" parent="77e6c97f196da883-3">
          <mxGeometry x="65" y="250" width="205" height="60" as="geometry" />
        </mxCell>
        <mxCell id="77e6c97f196da883-4" value="BE" style="swimlane;html=1;startSize=20;" parent="77e6c97f196da883-1" vertex="1">
          <mxGeometry x="590" y="20" width="630" height="610" as="geometry" />
        </mxCell>
        <mxCell id="7hA2E8RumJZDi3fpIp_V-3" value="&lt;span&gt;返回加密后手机号形如&#39;+86131111&#39;&lt;/span&gt;" style="whiteSpace=wrap;html=1;rounded=1;shadow=0;fontFamily=Verdana;fontSize=8;strokeWidth=1;" vertex="1" parent="77e6c97f196da883-4">
          <mxGeometry x="60" y="40" width="220" height="60" as="geometry" />
        </mxCell>
        <mxCell id="7hA2E8RumJZDi3fpIp_V-20" value="N" style="edgeStyle=orthogonalEdgeStyle;rounded=0;orthogonalLoop=1;jettySize=auto;html=1;" edge="1" parent="77e6c97f196da883-4" source="7hA2E8RumJZDi3fpIp_V-17" target="7hA2E8RumJZDi3fpIp_V-19">
          <mxGeometry relative="1" as="geometry" />
        </mxCell>
        <mxCell id="7hA2E8RumJZDi3fpIp_V-22" value="Y" style="edgeStyle=orthogonalEdgeStyle;rounded=0;orthogonalLoop=1;jettySize=auto;html=1;entryX=0;entryY=0.5;entryDx=0;entryDy=0;" edge="1" parent="77e6c97f196da883-4" source="7hA2E8RumJZDi3fpIp_V-17" target="7hA2E8RumJZDi3fpIp_V-21">
          <mxGeometry relative="1" as="geometry">
            <mxPoint x="400.05" y="280" as="targetPoint" />
          </mxGeometry>
        </mxCell>
        <mxCell id="7hA2E8RumJZDi3fpIp_V-34" style="edgeStyle=orthogonalEdgeStyle;rounded=0;orthogonalLoop=1;jettySize=auto;html=1;exitX=0.5;exitY=1;exitDx=0;exitDy=0;entryX=1;entryY=0.5;entryDx=0;entryDy=0;" edge="1" parent="77e6c97f196da883-4" source="7hA2E8RumJZDi3fpIp_V-21" target="7hA2E8RumJZDi3fpIp_V-19">
          <mxGeometry relative="1" as="geometry">
            <mxPoint x="433.75" y="310" as="sourcePoint" />
            <Array as="points">
              <mxPoint x="460" y="350" />
            </Array>
          </mxGeometry>
        </mxCell>
        <mxCell id="7hA2E8RumJZDi3fpIp_V-17" value="&lt;span&gt;参数&lt;br&gt;force_action_type = true&lt;/span&gt;" style="rhombus;whiteSpace=wrap;html=1;rounded=1;shadow=0;fontFamily=Verdana;fontSize=8;strokeWidth=1;" vertex="1" parent="77e6c97f196da883-4">
          <mxGeometry x="103.75" y="200" width="205" height="80" as="geometry" />
        </mxCell>
        <mxCell id="7hA2E8RumJZDi3fpIp_V-19" value="返回{&quot;suggest_channel&quot;:3,&quot;otp_available_channels&quot;:[1,2,3]}" style="whiteSpace=wrap;html=1;rounded=1;shadow=0;fontFamily=Verdana;fontSize=8;strokeWidth=1;" vertex="1" parent="77e6c97f196da883-4">
          <mxGeometry x="40" y="320" width="332.5" height="60" as="geometry" />
        </mxCell>
        <mxCell id="7hA2E8RumJZDi3fpIp_V-21" value="发送验证码" style="whiteSpace=wrap;html=1;rounded=1;shadow=0;fontFamily=Verdana;fontSize=8;strokeWidth=1;" vertex="1" parent="77e6c97f196da883-4">
          <mxGeometry x="400.05" y="210" width="120" height="60" as="geometry" />
        </mxCell>
        <mxCell id="7hA2E8RumJZDi3fpIp_V-4" value="" style="edgeStyle=orthogonalEdgeStyle;rounded=0;orthogonalLoop=1;jettySize=auto;html=1;" edge="1" parent="77e6c97f196da883-1" source="77e6c97f196da883-11" target="7hA2E8RumJZDi3fpIp_V-3">
          <mxGeometry relative="1" as="geometry" />
        </mxCell>
        <mxCell id="7hA2E8RumJZDi3fpIp_V-8" value="" style="edgeStyle=orthogonalEdgeStyle;rounded=0;orthogonalLoop=1;jettySize=auto;html=1;" edge="1" parent="77e6c97f196da883-1" source="7hA2E8RumJZDi3fpIp_V-3" target="7hA2E8RumJZDi3fpIp_V-7">
          <mxGeometry relative="1" as="geometry">
            <Array as="points">
              <mxPoint x="710" y="190" />
            </Array>
          </mxGeometry>
        </mxCell>
        <mxCell id="7hA2E8RumJZDi3fpIp_V-10" value="" style="edgeStyle=orthogonalEdgeStyle;curved=1;rounded=0;orthogonalLoop=1;jettySize=auto;html=1;" edge="1" parent="77e6c97f196da883-1" source="7hA2E8RumJZDi3fpIp_V-7" target="7hA2E8RumJZDi3fpIp_V-9">
          <mxGeometry relative="1" as="geometry" />
        </mxCell>
        <mxCell id="7hA2E8RumJZDi3fpIp_V-12" value="" style="edgeStyle=orthogonalEdgeStyle;rounded=0;orthogonalLoop=1;jettySize=auto;html=1;entryX=0;entryY=0.5;entryDx=0;entryDy=0;" edge="1" parent="77e6c97f196da883-1" source="7hA2E8RumJZDi3fpIp_V-9" target="7hA2E8RumJZDi3fpIp_V-11">
          <mxGeometry relative="1" as="geometry">
            <Array as="points">
              <mxPoint x="140" y="300" />
            </Array>
          </mxGeometry>
        </mxCell>
        <mxCell id="7hA2E8RumJZDi3fpIp_V-36" value="初始化" style="edgeLabel;html=1;align=center;verticalAlign=middle;resizable=0;points=[];" vertex="1" connectable="0" parent="7hA2E8RumJZDi3fpIp_V-12">
          <mxGeometry x="-0.5263" y="2" relative="1" as="geometry">
            <mxPoint as="offset" />
          </mxGeometry>
        </mxCell>
        <mxCell id="7hA2E8RumJZDi3fpIp_V-40" value="" style="edgeStyle=orthogonalEdgeStyle;rounded=0;orthogonalLoop=1;jettySize=auto;html=1;entryX=0.041;entryY=0.482;entryDx=0;entryDy=0;entryPerimeter=0;" edge="1" parent="77e6c97f196da883-1" source="7hA2E8RumJZDi3fpIp_V-11" target="7hA2E8RumJZDi3fpIp_V-17">
          <mxGeometry relative="1" as="geometry">
            <mxPoint x="682.5" y="299.9999999999998" as="targetPoint" />
          </mxGeometry>
        </mxCell>
      </root>
    </mxGraphModel>
  </diagram>
</mxfile>
